<mxfile host="app.diagrams.net" modified="2024-04-19T13:57:04.516Z" agent="Mozilla/5.0 (Windows NT 10.0; Win64; x64) AppleWebKit/537.36 (KHTML, like Gecko) Chrome/123.0.0.0 Safari/537.36" etag="vC7sLXGIlCEQbqJX26iU" version="24.2.5" type="github">
  <diagram id="C5RBs43oDa-KdzZeNtuy" name="Page-1">
    <mxGraphModel dx="1259" dy="672" grid="1" gridSize="10" guides="1" tooltips="1" connect="1" arrows="1" fold="1" page="1" pageScale="1" pageWidth="827" pageHeight="1169" math="0" shadow="0">
      <root>
        <mxCell id="WIyWlLk6GJQsqaUBKTNV-0" />
        <mxCell id="WIyWlLk6GJQsqaUBKTNV-1" parent="WIyWlLk6GJQsqaUBKTNV-0" />
        <mxCell id="zkfFHV4jXpPFQw0GAbJ--0" value="Customer" style="swimlane;fontStyle=2;align=center;verticalAlign=top;childLayout=stackLayout;horizontal=1;startSize=26;horizontalStack=0;resizeParent=1;resizeLast=0;collapsible=1;marginBottom=0;rounded=0;shadow=0;strokeWidth=1;" parent="WIyWlLk6GJQsqaUBKTNV-1" vertex="1">
          <mxGeometry x="30" y="20" width="1020" height="550" as="geometry">
            <mxRectangle x="230" y="140" width="160" height="26" as="alternateBounds" />
          </mxGeometry>
        </mxCell>
        <mxCell id="zkfFHV4jXpPFQw0GAbJ--1" value=" - customerID : int" style="text;align=left;verticalAlign=top;spacingLeft=4;spacingRight=4;overflow=hidden;rotatable=0;points=[[0,0.5],[1,0.5]];portConstraint=eastwest;" parent="zkfFHV4jXpPFQw0GAbJ--0" vertex="1">
          <mxGeometry y="26" width="1020" height="26" as="geometry" />
        </mxCell>
        <mxCell id="zkfFHV4jXpPFQw0GAbJ--2" value=" - customerName : string" style="text;align=left;verticalAlign=top;spacingLeft=4;spacingRight=4;overflow=hidden;rotatable=0;points=[[0,0.5],[1,0.5]];portConstraint=eastwest;rounded=0;shadow=0;html=0;" parent="zkfFHV4jXpPFQw0GAbJ--0" vertex="1">
          <mxGeometry y="52" width="1020" height="26" as="geometry" />
        </mxCell>
        <mxCell id="zkfFHV4jXpPFQw0GAbJ--3" value=" - customerAddress1 : string" style="text;align=left;verticalAlign=top;spacingLeft=4;spacingRight=4;overflow=hidden;rotatable=0;points=[[0,0.5],[1,0.5]];portConstraint=eastwest;rounded=0;shadow=0;html=0;" parent="zkfFHV4jXpPFQw0GAbJ--0" vertex="1">
          <mxGeometry y="78" width="1020" height="26" as="geometry" />
        </mxCell>
        <mxCell id="ph0_lQSMsqOua-OGN9ng-11" value=" - customerAddress2 : string" style="text;align=left;verticalAlign=top;spacingLeft=4;spacingRight=4;overflow=hidden;rotatable=0;points=[[0,0.5],[1,0.5]];portConstraint=eastwest;rounded=0;shadow=0;html=0;" parent="zkfFHV4jXpPFQw0GAbJ--0" vertex="1">
          <mxGeometry y="104" width="1020" height="26" as="geometry" />
        </mxCell>
        <mxCell id="ph0_lQSMsqOua-OGN9ng-12" value=" - customerCity : string" style="text;align=left;verticalAlign=top;spacingLeft=4;spacingRight=4;overflow=hidden;rotatable=0;points=[[0,0.5],[1,0.5]];portConstraint=eastwest;rounded=0;shadow=0;html=0;" parent="zkfFHV4jXpPFQw0GAbJ--0" vertex="1">
          <mxGeometry y="130" width="1020" height="26" as="geometry" />
        </mxCell>
        <mxCell id="ph0_lQSMsqOua-OGN9ng-13" value=" - customerCounty : string" style="text;align=left;verticalAlign=top;spacingLeft=4;spacingRight=4;overflow=hidden;rotatable=0;points=[[0,0.5],[1,0.5]];portConstraint=eastwest;rounded=0;shadow=0;html=0;" parent="zkfFHV4jXpPFQw0GAbJ--0" vertex="1">
          <mxGeometry y="156" width="1020" height="26" as="geometry" />
        </mxCell>
        <mxCell id="ph0_lQSMsqOua-OGN9ng-14" value=" - customerPostcode : string" style="text;align=left;verticalAlign=top;spacingLeft=4;spacingRight=4;overflow=hidden;rotatable=0;points=[[0,0.5],[1,0.5]];portConstraint=eastwest;rounded=0;shadow=0;html=0;" parent="zkfFHV4jXpPFQw0GAbJ--0" vertex="1">
          <mxGeometry y="182" width="1020" height="26" as="geometry" />
        </mxCell>
        <mxCell id="ph0_lQSMsqOua-OGN9ng-15" value=" - customerPhone : int" style="text;align=left;verticalAlign=top;spacingLeft=4;spacingRight=4;overflow=hidden;rotatable=0;points=[[0,0.5],[1,0.5]];portConstraint=eastwest;rounded=0;shadow=0;html=0;" parent="zkfFHV4jXpPFQw0GAbJ--0" vertex="1">
          <mxGeometry y="208" width="1020" height="26" as="geometry" />
        </mxCell>
        <mxCell id="ph0_lQSMsqOua-OGN9ng-16" value=" - customerEmail : string" style="text;align=left;verticalAlign=top;spacingLeft=4;spacingRight=4;overflow=hidden;rotatable=0;points=[[0,0.5],[1,0.5]];portConstraint=eastwest;rounded=0;shadow=0;html=0;" parent="zkfFHV4jXpPFQw0GAbJ--0" vertex="1">
          <mxGeometry y="234" width="1020" height="26" as="geometry" />
        </mxCell>
        <mxCell id="zkfFHV4jXpPFQw0GAbJ--4" value="" style="line;html=1;strokeWidth=1;align=left;verticalAlign=middle;spacingTop=-1;spacingLeft=3;spacingRight=3;rotatable=0;labelPosition=right;points=[];portConstraint=eastwest;" parent="zkfFHV4jXpPFQw0GAbJ--0" vertex="1">
          <mxGeometry y="260" width="1020" height="8" as="geometry" />
        </mxCell>
        <mxCell id="ph0_lQSMsqOua-OGN9ng-34" value=" + &lt;&lt;constructor&gt;&gt;Customer(in customerID : int, in customerName : string, in customerAddress1 : string, in customerAddress2 : string, in customerCity : string, in customerCounty : string,&#xa; in customerPostcode : string, in customerPhone : int, in customerEmail : string)&#xa; " style="text;align=left;verticalAlign=top;spacingLeft=4;spacingRight=4;overflow=hidden;rotatable=0;points=[[0,0.5],[1,0.5]];portConstraint=eastwest;rounded=0;shadow=0;html=0;" parent="zkfFHV4jXpPFQw0GAbJ--0" vertex="1">
          <mxGeometry y="268" width="1020" height="42" as="geometry" />
        </mxCell>
        <mxCell id="ph0_lQSMsqOua-OGN9ng-17" value=" + GetID() : int" style="text;align=left;verticalAlign=top;spacingLeft=4;spacingRight=4;overflow=hidden;rotatable=0;points=[[0,0.5],[1,0.5]];portConstraint=eastwest;rounded=0;shadow=0;html=0;" parent="zkfFHV4jXpPFQw0GAbJ--0" vertex="1">
          <mxGeometry y="310" width="1020" height="26" as="geometry" />
        </mxCell>
        <mxCell id="ph0_lQSMsqOua-OGN9ng-18" value=" + GetName() : string" style="text;align=left;verticalAlign=top;spacingLeft=4;spacingRight=4;overflow=hidden;rotatable=0;points=[[0,0.5],[1,0.5]];portConstraint=eastwest;rounded=0;shadow=0;html=0;" parent="zkfFHV4jXpPFQw0GAbJ--0" vertex="1">
          <mxGeometry y="336" width="1020" height="26" as="geometry" />
        </mxCell>
        <mxCell id="ph0_lQSMsqOua-OGN9ng-19" value=" + GetAddress1() : string" style="text;align=left;verticalAlign=top;spacingLeft=4;spacingRight=4;overflow=hidden;rotatable=0;points=[[0,0.5],[1,0.5]];portConstraint=eastwest;rounded=0;shadow=0;html=0;" parent="zkfFHV4jXpPFQw0GAbJ--0" vertex="1">
          <mxGeometry y="362" width="1020" height="26" as="geometry" />
        </mxCell>
        <mxCell id="ph0_lQSMsqOua-OGN9ng-20" value=" + GetAddress2() : string" style="text;align=left;verticalAlign=top;spacingLeft=4;spacingRight=4;overflow=hidden;rotatable=0;points=[[0,0.5],[1,0.5]];portConstraint=eastwest;rounded=0;shadow=0;html=0;" parent="zkfFHV4jXpPFQw0GAbJ--0" vertex="1">
          <mxGeometry y="388" width="1020" height="26" as="geometry" />
        </mxCell>
        <mxCell id="ph0_lQSMsqOua-OGN9ng-21" value=" + GetCity() : string" style="text;align=left;verticalAlign=top;spacingLeft=4;spacingRight=4;overflow=hidden;rotatable=0;points=[[0,0.5],[1,0.5]];portConstraint=eastwest;rounded=0;shadow=0;html=0;" parent="zkfFHV4jXpPFQw0GAbJ--0" vertex="1">
          <mxGeometry y="414" width="1020" height="26" as="geometry" />
        </mxCell>
        <mxCell id="ph0_lQSMsqOua-OGN9ng-22" value=" + GetCounty() : string" style="text;align=left;verticalAlign=top;spacingLeft=4;spacingRight=4;overflow=hidden;rotatable=0;points=[[0,0.5],[1,0.5]];portConstraint=eastwest;rounded=0;shadow=0;html=0;" parent="zkfFHV4jXpPFQw0GAbJ--0" vertex="1">
          <mxGeometry y="440" width="1020" height="26" as="geometry" />
        </mxCell>
        <mxCell id="ph0_lQSMsqOua-OGN9ng-23" value=" + GetPostcode() : string" style="text;align=left;verticalAlign=top;spacingLeft=4;spacingRight=4;overflow=hidden;rotatable=0;points=[[0,0.5],[1,0.5]];portConstraint=eastwest;rounded=0;shadow=0;html=0;" parent="zkfFHV4jXpPFQw0GAbJ--0" vertex="1">
          <mxGeometry y="466" width="1020" height="26" as="geometry" />
        </mxCell>
        <mxCell id="ph0_lQSMsqOua-OGN9ng-24" value=" + GetPhone() : int" style="text;align=left;verticalAlign=top;spacingLeft=4;spacingRight=4;overflow=hidden;rotatable=0;points=[[0,0.5],[1,0.5]];portConstraint=eastwest;rounded=0;shadow=0;html=0;" parent="zkfFHV4jXpPFQw0GAbJ--0" vertex="1">
          <mxGeometry y="492" width="1020" height="26" as="geometry" />
        </mxCell>
        <mxCell id="ph0_lQSMsqOua-OGN9ng-25" value=" + GetEmail() : string" style="text;align=left;verticalAlign=top;spacingLeft=4;spacingRight=4;overflow=hidden;rotatable=0;points=[[0,0.5],[1,0.5]];portConstraint=eastwest;rounded=0;shadow=0;html=0;" parent="zkfFHV4jXpPFQw0GAbJ--0" vertex="1">
          <mxGeometry y="518" width="1020" height="26" as="geometry" />
        </mxCell>
        <mxCell id="zkfFHV4jXpPFQw0GAbJ--6" value="OrderDetail" style="swimlane;fontStyle=0;align=center;verticalAlign=top;childLayout=stackLayout;horizontal=1;startSize=26;horizontalStack=0;resizeParent=1;resizeLast=0;collapsible=1;marginBottom=0;rounded=0;shadow=0;strokeWidth=1;" parent="WIyWlLk6GJQsqaUBKTNV-1" vertex="1">
          <mxGeometry x="160" y="1570" width="560" height="294" as="geometry">
            <mxRectangle x="130" y="380" width="160" height="26" as="alternateBounds" />
          </mxGeometry>
        </mxCell>
        <mxCell id="zkfFHV4jXpPFQw0GAbJ--7" value=" - orderDetailID : int" style="text;align=left;verticalAlign=top;spacingLeft=4;spacingRight=4;overflow=hidden;rotatable=0;points=[[0,0.5],[1,0.5]];portConstraint=eastwest;" parent="zkfFHV4jXpPFQw0GAbJ--6" vertex="1">
          <mxGeometry y="26" width="560" height="26" as="geometry" />
        </mxCell>
        <mxCell id="zkfFHV4jXpPFQw0GAbJ--8" value=" - orderID : int" style="text;align=left;verticalAlign=top;spacingLeft=4;spacingRight=4;overflow=hidden;rotatable=0;points=[[0,0.5],[1,0.5]];portConstraint=eastwest;rounded=0;shadow=0;html=0;" parent="zkfFHV4jXpPFQw0GAbJ--6" vertex="1">
          <mxGeometry y="52" width="560" height="26" as="geometry" />
        </mxCell>
        <mxCell id="ph0_lQSMsqOua-OGN9ng-27" value=" - productID : int" style="text;align=left;verticalAlign=top;spacingLeft=4;spacingRight=4;overflow=hidden;rotatable=0;points=[[0,0.5],[1,0.5]];portConstraint=eastwest;rounded=0;shadow=0;html=0;" parent="zkfFHV4jXpPFQw0GAbJ--6" vertex="1">
          <mxGeometry y="78" width="560" height="26" as="geometry" />
        </mxCell>
        <mxCell id="ph0_lQSMsqOua-OGN9ng-28" value=" - quantity : int" style="text;align=left;verticalAlign=top;spacingLeft=4;spacingRight=4;overflow=hidden;rotatable=0;points=[[0,0.5],[1,0.5]];portConstraint=eastwest;rounded=0;shadow=0;html=0;" parent="zkfFHV4jXpPFQw0GAbJ--6" vertex="1">
          <mxGeometry y="104" width="560" height="26" as="geometry" />
        </mxCell>
        <mxCell id="zkfFHV4jXpPFQw0GAbJ--9" value="" style="line;html=1;strokeWidth=1;align=left;verticalAlign=middle;spacingTop=-1;spacingLeft=3;spacingRight=3;rotatable=0;labelPosition=right;points=[];portConstraint=eastwest;" parent="zkfFHV4jXpPFQw0GAbJ--6" vertex="1">
          <mxGeometry y="130" width="560" height="8" as="geometry" />
        </mxCell>
        <mxCell id="ph0_lQSMsqOua-OGN9ng-76" value=" + &lt;&lt;constructor&gt;&gt; OrderDetail (in orderDetailID : int, in orderID : int, in productID : int, in quantity : int)" style="text;align=left;verticalAlign=top;spacingLeft=4;spacingRight=4;overflow=hidden;rotatable=0;points=[[0,0.5],[1,0.5]];portConstraint=eastwest;" parent="zkfFHV4jXpPFQw0GAbJ--6" vertex="1">
          <mxGeometry y="138" width="560" height="26" as="geometry" />
        </mxCell>
        <mxCell id="ph0_lQSMsqOua-OGN9ng-77" value=" + CalculateAndGetTotalCost() : decimal" style="text;align=left;verticalAlign=top;spacingLeft=4;spacingRight=4;overflow=hidden;rotatable=0;points=[[0,0.5],[1,0.5]];portConstraint=eastwest;" parent="zkfFHV4jXpPFQw0GAbJ--6" vertex="1">
          <mxGeometry y="164" width="560" height="26" as="geometry" />
        </mxCell>
        <mxCell id="ph0_lQSMsqOua-OGN9ng-81" value=" + GetQuantity() : int" style="text;align=left;verticalAlign=top;spacingLeft=4;spacingRight=4;overflow=hidden;rotatable=0;points=[[0,0.5],[1,0.5]];portConstraint=eastwest;" parent="zkfFHV4jXpPFQw0GAbJ--6" vertex="1">
          <mxGeometry y="190" width="560" height="26" as="geometry" />
        </mxCell>
        <mxCell id="ph0_lQSMsqOua-OGN9ng-80" value=" + GetProductID() : int" style="text;align=left;verticalAlign=top;spacingLeft=4;spacingRight=4;overflow=hidden;rotatable=0;points=[[0,0.5],[1,0.5]];portConstraint=eastwest;" parent="zkfFHV4jXpPFQw0GAbJ--6" vertex="1">
          <mxGeometry y="216" width="560" height="26" as="geometry" />
        </mxCell>
        <mxCell id="ph0_lQSMsqOua-OGN9ng-79" value=" + GetOrderID() : int" style="text;align=left;verticalAlign=top;spacingLeft=4;spacingRight=4;overflow=hidden;rotatable=0;points=[[0,0.5],[1,0.5]];portConstraint=eastwest;" parent="zkfFHV4jXpPFQw0GAbJ--6" vertex="1">
          <mxGeometry y="242" width="560" height="26" as="geometry" />
        </mxCell>
        <mxCell id="ph0_lQSMsqOua-OGN9ng-78" value=" + GetOrderDetailID() : int" style="text;align=left;verticalAlign=top;spacingLeft=4;spacingRight=4;overflow=hidden;rotatable=0;points=[[0,0.5],[1,0.5]];portConstraint=eastwest;" parent="zkfFHV4jXpPFQw0GAbJ--6" vertex="1">
          <mxGeometry y="268" width="560" height="26" as="geometry" />
        </mxCell>
        <mxCell id="zkfFHV4jXpPFQw0GAbJ--13" value="Product" style="swimlane;fontStyle=0;align=center;verticalAlign=top;childLayout=stackLayout;horizontal=1;startSize=26;horizontalStack=0;resizeParent=1;resizeLast=0;collapsible=1;marginBottom=0;rounded=0;shadow=0;strokeWidth=1;" parent="WIyWlLk6GJQsqaUBKTNV-1" vertex="1">
          <mxGeometry x="500" y="1150" width="600" height="346" as="geometry">
            <mxRectangle x="340" y="380" width="170" height="26" as="alternateBounds" />
          </mxGeometry>
        </mxCell>
        <mxCell id="zkfFHV4jXpPFQw0GAbJ--14" value=" - productID : int" style="text;align=left;verticalAlign=top;spacingLeft=4;spacingRight=4;overflow=hidden;rotatable=0;points=[[0,0.5],[1,0.5]];portConstraint=eastwest;" parent="zkfFHV4jXpPFQw0GAbJ--13" vertex="1">
          <mxGeometry y="26" width="600" height="26" as="geometry" />
        </mxCell>
        <mxCell id="ph0_lQSMsqOua-OGN9ng-29" value=" - productName : string" style="text;align=left;verticalAlign=top;spacingLeft=4;spacingRight=4;overflow=hidden;rotatable=0;points=[[0,0.5],[1,0.5]];portConstraint=eastwest;" parent="zkfFHV4jXpPFQw0GAbJ--13" vertex="1">
          <mxGeometry y="52" width="600" height="26" as="geometry" />
        </mxCell>
        <mxCell id="ph0_lQSMsqOua-OGN9ng-31" value=" - productImagePath : string" style="text;align=left;verticalAlign=top;spacingLeft=4;spacingRight=4;overflow=hidden;rotatable=0;points=[[0,0.5],[1,0.5]];portConstraint=eastwest;" parent="zkfFHV4jXpPFQw0GAbJ--13" vertex="1">
          <mxGeometry y="78" width="600" height="26" as="geometry" />
        </mxCell>
        <mxCell id="tTByz9xbStQo4x7AQ5BX-3" value=" - defaultProductImagePath : string" style="text;align=left;verticalAlign=top;spacingLeft=4;spacingRight=4;overflow=hidden;rotatable=0;points=[[0,0.5],[1,0.5]];portConstraint=eastwest;" vertex="1" parent="zkfFHV4jXpPFQw0GAbJ--13">
          <mxGeometry y="104" width="600" height="26" as="geometry" />
        </mxCell>
        <mxCell id="ph0_lQSMsqOua-OGN9ng-41" value=" - price : decimal" style="text;align=left;verticalAlign=top;spacingLeft=4;spacingRight=4;overflow=hidden;rotatable=0;points=[[0,0.5],[1,0.5]];portConstraint=eastwest;" parent="zkfFHV4jXpPFQw0GAbJ--13" vertex="1">
          <mxGeometry y="130" width="600" height="26" as="geometry" />
        </mxCell>
        <mxCell id="zkfFHV4jXpPFQw0GAbJ--15" value="" style="line;html=1;strokeWidth=1;align=left;verticalAlign=middle;spacingTop=-1;spacingLeft=3;spacingRight=3;rotatable=0;labelPosition=right;points=[];portConstraint=eastwest;" parent="zkfFHV4jXpPFQw0GAbJ--13" vertex="1">
          <mxGeometry y="156" width="600" height="8" as="geometry" />
        </mxCell>
        <mxCell id="ph0_lQSMsqOua-OGN9ng-59" value=" + &lt;&lt;constructor&gt;&gt; Product (in productID : int, in productName : string, in price : decimal)" style="text;align=left;verticalAlign=top;spacingLeft=4;spacingRight=4;overflow=hidden;rotatable=0;points=[[0,0.5],[1,0.5]];portConstraint=eastwest;" parent="zkfFHV4jXpPFQw0GAbJ--13" vertex="1">
          <mxGeometry y="164" width="600" height="26" as="geometry" />
        </mxCell>
        <mxCell id="ph0_lQSMsqOua-OGN9ng-60" value=" + AddProductImagePath (in path : string)" style="text;align=left;verticalAlign=top;spacingLeft=4;spacingRight=4;overflow=hidden;rotatable=0;points=[[0,0.5],[1,0.5]];portConstraint=eastwest;" parent="zkfFHV4jXpPFQw0GAbJ--13" vertex="1">
          <mxGeometry y="190" width="600" height="26" as="geometry" />
        </mxCell>
        <mxCell id="ph0_lQSMsqOua-OGN9ng-61" value=" + AdjustPrice (in amount : decimal)" style="text;align=left;verticalAlign=top;spacingLeft=4;spacingRight=4;overflow=hidden;rotatable=0;points=[[0,0.5],[1,0.5]];portConstraint=eastwest;" parent="zkfFHV4jXpPFQw0GAbJ--13" vertex="1">
          <mxGeometry y="216" width="600" height="26" as="geometry" />
        </mxCell>
        <mxCell id="ph0_lQSMsqOua-OGN9ng-62" value=" + GetID() : int" style="text;align=left;verticalAlign=top;spacingLeft=4;spacingRight=4;overflow=hidden;rotatable=0;points=[[0,0.5],[1,0.5]];portConstraint=eastwest;" parent="zkfFHV4jXpPFQw0GAbJ--13" vertex="1">
          <mxGeometry y="242" width="600" height="26" as="geometry" />
        </mxCell>
        <mxCell id="ph0_lQSMsqOua-OGN9ng-63" value=" + GetName() : string" style="text;align=left;verticalAlign=top;spacingLeft=4;spacingRight=4;overflow=hidden;rotatable=0;points=[[0,0.5],[1,0.5]];portConstraint=eastwest;" parent="zkfFHV4jXpPFQw0GAbJ--13" vertex="1">
          <mxGeometry y="268" width="600" height="26" as="geometry" />
        </mxCell>
        <mxCell id="ph0_lQSMsqOua-OGN9ng-64" value=" + GetImagePath() : string" style="text;align=left;verticalAlign=top;spacingLeft=4;spacingRight=4;overflow=hidden;rotatable=0;points=[[0,0.5],[1,0.5]];portConstraint=eastwest;" parent="zkfFHV4jXpPFQw0GAbJ--13" vertex="1">
          <mxGeometry y="294" width="600" height="26" as="geometry" />
        </mxCell>
        <mxCell id="ph0_lQSMsqOua-OGN9ng-65" value=" + GetPrice() : decimal" style="text;align=left;verticalAlign=top;spacingLeft=4;spacingRight=4;overflow=hidden;rotatable=0;points=[[0,0.5],[1,0.5]];portConstraint=eastwest;" parent="zkfFHV4jXpPFQw0GAbJ--13" vertex="1">
          <mxGeometry y="320" width="600" height="26" as="geometry" />
        </mxCell>
        <mxCell id="zkfFHV4jXpPFQw0GAbJ--17" value="Order" style="swimlane;fontStyle=0;align=center;verticalAlign=top;childLayout=stackLayout;horizontal=1;startSize=26;horizontalStack=0;resizeParent=1;resizeLast=0;collapsible=1;marginBottom=0;rounded=0;shadow=0;strokeWidth=1;" parent="WIyWlLk6GJQsqaUBKTNV-1" vertex="1">
          <mxGeometry x="140" y="684" width="460" height="330" as="geometry">
            <mxRectangle x="550" y="140" width="160" height="26" as="alternateBounds" />
          </mxGeometry>
        </mxCell>
        <mxCell id="zkfFHV4jXpPFQw0GAbJ--18" value=" - orderID : int" style="text;align=left;verticalAlign=top;spacingLeft=4;spacingRight=4;overflow=hidden;rotatable=0;points=[[0,0.5],[1,0.5]];portConstraint=eastwest;" parent="zkfFHV4jXpPFQw0GAbJ--17" vertex="1">
          <mxGeometry y="26" width="460" height="26" as="geometry" />
        </mxCell>
        <mxCell id="zkfFHV4jXpPFQw0GAbJ--19" value=" - customerID : int" style="text;align=left;verticalAlign=top;spacingLeft=4;spacingRight=4;overflow=hidden;rotatable=0;points=[[0,0.5],[1,0.5]];portConstraint=eastwest;rounded=0;shadow=0;html=0;" parent="zkfFHV4jXpPFQw0GAbJ--17" vertex="1">
          <mxGeometry y="52" width="460" height="26" as="geometry" />
        </mxCell>
        <mxCell id="zkfFHV4jXpPFQw0GAbJ--20" value=" - orderDate : DateTime" style="text;align=left;verticalAlign=top;spacingLeft=4;spacingRight=4;overflow=hidden;rotatable=0;points=[[0,0.5],[1,0.5]];portConstraint=eastwest;rounded=0;shadow=0;html=0;" parent="zkfFHV4jXpPFQw0GAbJ--17" vertex="1">
          <mxGeometry y="78" width="460" height="26" as="geometry" />
        </mxCell>
        <mxCell id="ph0_lQSMsqOua-OGN9ng-35" value=" - orderDetails : OrderDetail[]" style="text;align=left;verticalAlign=top;spacingLeft=4;spacingRight=4;overflow=hidden;rotatable=0;points=[[0,0.5],[1,0.5]];portConstraint=eastwest;rounded=0;shadow=0;html=0;" parent="zkfFHV4jXpPFQw0GAbJ--17" vertex="1">
          <mxGeometry y="104" width="460" height="26" as="geometry" />
        </mxCell>
        <mxCell id="zkfFHV4jXpPFQw0GAbJ--23" value="" style="line;html=1;strokeWidth=1;align=left;verticalAlign=middle;spacingTop=-1;spacingLeft=3;spacingRight=3;rotatable=0;labelPosition=right;points=[];portConstraint=eastwest;" parent="zkfFHV4jXpPFQw0GAbJ--17" vertex="1">
          <mxGeometry y="130" width="460" height="8" as="geometry" />
        </mxCell>
        <mxCell id="ph0_lQSMsqOua-OGN9ng-82" value=" + &lt;&lt;constructor&gt;&gt; Order (in orderID : int, in customerID : int, in currentDate : DateTime) " style="text;align=left;verticalAlign=top;spacingLeft=4;spacingRight=4;overflow=hidden;rotatable=0;points=[[0,0.5],[1,0.5]];portConstraint=eastwest;" parent="zkfFHV4jXpPFQw0GAbJ--17" vertex="1">
          <mxGeometry y="138" width="460" height="26" as="geometry" />
        </mxCell>
        <mxCell id="ph0_lQSMsqOua-OGN9ng-89" value=" + GetCustomerID() : int" style="text;align=left;verticalAlign=top;spacingLeft=4;spacingRight=4;overflow=hidden;rotatable=0;points=[[0,0.5],[1,0.5]];portConstraint=eastwest;" parent="zkfFHV4jXpPFQw0GAbJ--17" vertex="1">
          <mxGeometry y="164" width="460" height="26" as="geometry" />
        </mxCell>
        <mxCell id="ph0_lQSMsqOua-OGN9ng-90" value=" + GetOrderDate() : Date" style="text;align=left;verticalAlign=top;spacingLeft=4;spacingRight=4;overflow=hidden;rotatable=0;points=[[0,0.5],[1,0.5]];portConstraint=eastwest;" parent="zkfFHV4jXpPFQw0GAbJ--17" vertex="1">
          <mxGeometry y="190" width="460" height="26" as="geometry" />
        </mxCell>
        <mxCell id="ph0_lQSMsqOua-OGN9ng-86" value=" + GetID() : int" style="text;align=left;verticalAlign=top;spacingLeft=4;spacingRight=4;overflow=hidden;rotatable=0;points=[[0,0.5],[1,0.5]];portConstraint=eastwest;" parent="zkfFHV4jXpPFQw0GAbJ--17" vertex="1">
          <mxGeometry y="216" width="460" height="26" as="geometry" />
        </mxCell>
        <mxCell id="ph0_lQSMsqOua-OGN9ng-87" value=" + GetAllDetails() : OrderDetail []" style="text;align=left;verticalAlign=top;spacingLeft=4;spacingRight=4;overflow=hidden;rotatable=0;points=[[0,0.5],[1,0.5]];portConstraint=eastwest;" parent="zkfFHV4jXpPFQw0GAbJ--17" vertex="1">
          <mxGeometry y="242" width="460" height="26" as="geometry" />
        </mxCell>
        <mxCell id="ph0_lQSMsqOua-OGN9ng-88" value=" + GetDetail (in OrderDetailID : int) : OrderDetail" style="text;align=left;verticalAlign=top;spacingLeft=4;spacingRight=4;overflow=hidden;rotatable=0;points=[[0,0.5],[1,0.5]];portConstraint=eastwest;" parent="zkfFHV4jXpPFQw0GAbJ--17" vertex="1">
          <mxGeometry y="268" width="460" height="26" as="geometry" />
        </mxCell>
        <mxCell id="ph0_lQSMsqOua-OGN9ng-83" value=" + AddDetailToOrder (in orderDetail : OrderDetail)" style="text;align=left;verticalAlign=top;spacingLeft=4;spacingRight=4;overflow=hidden;rotatable=0;points=[[0,0.5],[1,0.5]];portConstraint=eastwest;" parent="zkfFHV4jXpPFQw0GAbJ--17" vertex="1">
          <mxGeometry y="294" width="460" height="26" as="geometry" />
        </mxCell>
        <mxCell id="ph0_lQSMsqOua-OGN9ng-0" value="User" style="swimlane;fontStyle=0;align=center;verticalAlign=top;childLayout=stackLayout;horizontal=1;startSize=26;horizontalStack=0;resizeParent=1;resizeLast=0;collapsible=1;marginBottom=0;rounded=0;shadow=0;strokeWidth=1;" parent="WIyWlLk6GJQsqaUBKTNV-1" vertex="1">
          <mxGeometry x="850" y="690" width="380" height="324" as="geometry">
            <mxRectangle x="340" y="380" width="170" height="26" as="alternateBounds" />
          </mxGeometry>
        </mxCell>
        <mxCell id="ph0_lQSMsqOua-OGN9ng-1" value=" - userID : int" style="text;align=left;verticalAlign=top;spacingLeft=4;spacingRight=4;overflow=hidden;rotatable=0;points=[[0,0.5],[1,0.5]];portConstraint=eastwest;" parent="ph0_lQSMsqOua-OGN9ng-0" vertex="1">
          <mxGeometry y="26" width="380" height="26" as="geometry" />
        </mxCell>
        <mxCell id="ph0_lQSMsqOua-OGN9ng-32" value=" - username : string" style="text;align=left;verticalAlign=top;spacingLeft=4;spacingRight=4;overflow=hidden;rotatable=0;points=[[0,0.5],[1,0.5]];portConstraint=eastwest;" parent="ph0_lQSMsqOua-OGN9ng-0" vertex="1">
          <mxGeometry y="52" width="380" height="26" as="geometry" />
        </mxCell>
        <mxCell id="ph0_lQSMsqOua-OGN9ng-33" value=" - password : string" style="text;align=left;verticalAlign=top;spacingLeft=4;spacingRight=4;overflow=hidden;rotatable=0;points=[[0,0.5],[1,0.5]];portConstraint=eastwest;" parent="ph0_lQSMsqOua-OGN9ng-0" vertex="1">
          <mxGeometry y="78" width="380" height="26" as="geometry" />
        </mxCell>
        <mxCell id="ph0_lQSMsqOua-OGN9ng-45" value=" - isVerified : bool" style="text;align=left;verticalAlign=top;spacingLeft=4;spacingRight=4;overflow=hidden;rotatable=0;points=[[0,0.5],[1,0.5]];portConstraint=eastwest;" parent="ph0_lQSMsqOua-OGN9ng-0" vertex="1">
          <mxGeometry y="104" width="380" height="26" as="geometry" />
        </mxCell>
        <mxCell id="ph0_lQSMsqOua-OGN9ng-2" value="" style="line;html=1;strokeWidth=1;align=left;verticalAlign=middle;spacingTop=-1;spacingLeft=3;spacingRight=3;rotatable=0;labelPosition=right;points=[];portConstraint=eastwest;" parent="ph0_lQSMsqOua-OGN9ng-0" vertex="1">
          <mxGeometry y="130" width="380" height="8" as="geometry" />
        </mxCell>
        <mxCell id="ph0_lQSMsqOua-OGN9ng-42" value=" + &lt;&lt;constructor&gt;&gt; User (in userID : int, in username : string)" style="text;align=left;verticalAlign=top;spacingLeft=4;spacingRight=4;overflow=hidden;rotatable=0;points=[[0,0.5],[1,0.5]];portConstraint=eastwest;" parent="ph0_lQSMsqOua-OGN9ng-0" vertex="1">
          <mxGeometry y="138" width="380" height="26" as="geometry" />
        </mxCell>
        <mxCell id="ph0_lQSMsqOua-OGN9ng-43" value=" + VerifyUserAccount (in password : string) : bool" style="text;align=left;verticalAlign=top;spacingLeft=4;spacingRight=4;overflow=hidden;rotatable=0;points=[[0,0.5],[1,0.5]];portConstraint=eastwest;" parent="ph0_lQSMsqOua-OGN9ng-0" vertex="1">
          <mxGeometry y="164" width="380" height="32" as="geometry" />
        </mxCell>
        <mxCell id="ph0_lQSMsqOua-OGN9ng-70" value=" + GetID() : int" style="text;align=left;verticalAlign=top;spacingLeft=4;spacingRight=4;overflow=hidden;rotatable=0;points=[[0,0.5],[1,0.5]];portConstraint=eastwest;" parent="ph0_lQSMsqOua-OGN9ng-0" vertex="1">
          <mxGeometry y="196" width="380" height="32" as="geometry" />
        </mxCell>
        <mxCell id="ph0_lQSMsqOua-OGN9ng-69" value=" + GetUsername() : string&#xa;" style="text;align=left;verticalAlign=top;spacingLeft=4;spacingRight=4;overflow=hidden;rotatable=0;points=[[0,0.5],[1,0.5]];portConstraint=eastwest;" parent="ph0_lQSMsqOua-OGN9ng-0" vertex="1">
          <mxGeometry y="228" width="380" height="32" as="geometry" />
        </mxCell>
        <mxCell id="tTByz9xbStQo4x7AQ5BX-1" value=" + GetUsername() : string&#xa;" style="text;align=left;verticalAlign=top;spacingLeft=4;spacingRight=4;overflow=hidden;rotatable=0;points=[[0,0.5],[1,0.5]];portConstraint=eastwest;" vertex="1" parent="ph0_lQSMsqOua-OGN9ng-0">
          <mxGeometry y="260" width="380" height="32" as="geometry" />
        </mxCell>
        <mxCell id="tTByz9xbStQo4x7AQ5BX-2" value=" + GetVerification() : bool&#xa;" style="text;align=left;verticalAlign=top;spacingLeft=4;spacingRight=4;overflow=hidden;rotatable=0;points=[[0,0.5],[1,0.5]];portConstraint=eastwest;" vertex="1" parent="ph0_lQSMsqOua-OGN9ng-0">
          <mxGeometry y="292" width="380" height="32" as="geometry" />
        </mxCell>
        <mxCell id="ph0_lQSMsqOua-OGN9ng-3" value="Basket" style="swimlane;fontStyle=0;align=center;verticalAlign=top;childLayout=stackLayout;horizontal=1;startSize=26;horizontalStack=0;resizeParent=1;resizeLast=0;collapsible=1;marginBottom=0;rounded=0;shadow=0;strokeWidth=1;" parent="WIyWlLk6GJQsqaUBKTNV-1" vertex="1">
          <mxGeometry x="30" y="1150" width="380" height="372" as="geometry">
            <mxRectangle x="340" y="380" width="170" height="26" as="alternateBounds" />
          </mxGeometry>
        </mxCell>
        <mxCell id="ph0_lQSMsqOua-OGN9ng-4" value=" - basketID: int" style="text;align=left;verticalAlign=top;spacingLeft=4;spacingRight=4;overflow=hidden;rotatable=0;points=[[0,0.5],[1,0.5]];portConstraint=eastwest;" parent="ph0_lQSMsqOua-OGN9ng-3" vertex="1">
          <mxGeometry y="26" width="380" height="26" as="geometry" />
        </mxCell>
        <mxCell id="ph0_lQSMsqOua-OGN9ng-36" value=" - basketItems : BasketItem []" style="text;align=left;verticalAlign=top;spacingLeft=4;spacingRight=4;overflow=hidden;rotatable=0;points=[[0,0.5],[1,0.5]];portConstraint=eastwest;" parent="ph0_lQSMsqOua-OGN9ng-3" vertex="1">
          <mxGeometry y="52" width="380" height="26" as="geometry" />
        </mxCell>
        <mxCell id="ph0_lQSMsqOua-OGN9ng-37" value=" - customerID : int" style="text;align=left;verticalAlign=top;spacingLeft=4;spacingRight=4;overflow=hidden;rotatable=0;points=[[0,0.5],[1,0.5]];portConstraint=eastwest;" parent="ph0_lQSMsqOua-OGN9ng-3" vertex="1">
          <mxGeometry y="78" width="380" height="26" as="geometry" />
        </mxCell>
        <mxCell id="ph0_lQSMsqOua-OGN9ng-5" value="" style="line;html=1;strokeWidth=1;align=left;verticalAlign=middle;spacingTop=-1;spacingLeft=3;spacingRight=3;rotatable=0;labelPosition=right;points=[];portConstraint=eastwest;" parent="ph0_lQSMsqOua-OGN9ng-3" vertex="1">
          <mxGeometry y="104" width="380" height="8" as="geometry" />
        </mxCell>
        <mxCell id="ph0_lQSMsqOua-OGN9ng-52" value=" + &lt;&lt;constructor&gt;&gt; Basket (in basketID : int, in customerID : int) " style="text;align=left;verticalAlign=top;spacingLeft=4;spacingRight=4;overflow=hidden;rotatable=0;points=[[0,0.5],[1,0.5]];portConstraint=eastwest;" parent="ph0_lQSMsqOua-OGN9ng-3" vertex="1">
          <mxGeometry y="112" width="380" height="26" as="geometry" />
        </mxCell>
        <mxCell id="ph0_lQSMsqOua-OGN9ng-53" value=" + AddItemToBasket (in basketItem : BasketItem)" style="text;align=left;verticalAlign=top;spacingLeft=4;spacingRight=4;overflow=hidden;rotatable=0;points=[[0,0.5],[1,0.5]];portConstraint=eastwest;" parent="ph0_lQSMsqOua-OGN9ng-3" vertex="1">
          <mxGeometry y="138" width="380" height="26" as="geometry" />
        </mxCell>
        <mxCell id="ph0_lQSMsqOua-OGN9ng-54" value=" + RemoveItemFromBasket (in basketItemID : int)" style="text;align=left;verticalAlign=top;spacingLeft=4;spacingRight=4;overflow=hidden;rotatable=0;points=[[0,0.5],[1,0.5]];portConstraint=eastwest;" parent="ph0_lQSMsqOua-OGN9ng-3" vertex="1">
          <mxGeometry y="164" width="380" height="26" as="geometry" />
        </mxCell>
        <mxCell id="ph0_lQSMsqOua-OGN9ng-55" value=" + ClearBasket (in basketItemID : int)" style="text;align=left;verticalAlign=top;spacingLeft=4;spacingRight=4;overflow=hidden;rotatable=0;points=[[0,0.5],[1,0.5]];portConstraint=eastwest;" parent="ph0_lQSMsqOua-OGN9ng-3" vertex="1">
          <mxGeometry y="190" width="380" height="26" as="geometry" />
        </mxCell>
        <mxCell id="ph0_lQSMsqOua-OGN9ng-71" value=" + GetID() : int" style="text;align=left;verticalAlign=top;spacingLeft=4;spacingRight=4;overflow=hidden;rotatable=0;points=[[0,0.5],[1,0.5]];portConstraint=eastwest;" parent="ph0_lQSMsqOua-OGN9ng-3" vertex="1">
          <mxGeometry y="216" width="380" height="26" as="geometry" />
        </mxCell>
        <mxCell id="ph0_lQSMsqOua-OGN9ng-73" value=" + GetAllItems() : BasketItem []" style="text;align=left;verticalAlign=top;spacingLeft=4;spacingRight=4;overflow=hidden;rotatable=0;points=[[0,0.5],[1,0.5]];portConstraint=eastwest;" parent="ph0_lQSMsqOua-OGN9ng-3" vertex="1">
          <mxGeometry y="242" width="380" height="26" as="geometry" />
        </mxCell>
        <mxCell id="ph0_lQSMsqOua-OGN9ng-74" value=" + GetItem (in basketItemID : int) : BasketItem" style="text;align=left;verticalAlign=top;spacingLeft=4;spacingRight=4;overflow=hidden;rotatable=0;points=[[0,0.5],[1,0.5]];portConstraint=eastwest;" parent="ph0_lQSMsqOua-OGN9ng-3" vertex="1">
          <mxGeometry y="268" width="380" height="26" as="geometry" />
        </mxCell>
        <mxCell id="ph0_lQSMsqOua-OGN9ng-75" value=" + GetCustomerID() : int" style="text;align=left;verticalAlign=top;spacingLeft=4;spacingRight=4;overflow=hidden;rotatable=0;points=[[0,0.5],[1,0.5]];portConstraint=eastwest;" parent="ph0_lQSMsqOua-OGN9ng-3" vertex="1">
          <mxGeometry y="294" width="380" height="26" as="geometry" />
        </mxCell>
        <mxCell id="ph0_lQSMsqOua-OGN9ng-91" value=" + ConvertToOrder() : Order" style="text;align=left;verticalAlign=top;spacingLeft=4;spacingRight=4;overflow=hidden;rotatable=0;points=[[0,0.5],[1,0.5]];portConstraint=eastwest;" parent="ph0_lQSMsqOua-OGN9ng-3" vertex="1">
          <mxGeometry y="320" width="380" height="26" as="geometry" />
        </mxCell>
        <mxCell id="tTByz9xbStQo4x7AQ5BX-59" value=" + CheckMinimumItemsMet() : Order" style="text;align=left;verticalAlign=top;spacingLeft=4;spacingRight=4;overflow=hidden;rotatable=0;points=[[0,0.5],[1,0.5]];portConstraint=eastwest;" vertex="1" parent="ph0_lQSMsqOua-OGN9ng-3">
          <mxGeometry y="346" width="380" height="26" as="geometry" />
        </mxCell>
        <mxCell id="ph0_lQSMsqOua-OGN9ng-7" value="BasketItem" style="swimlane;fontStyle=0;align=center;verticalAlign=top;childLayout=stackLayout;horizontal=1;startSize=26;horizontalStack=0;resizeParent=1;resizeLast=0;collapsible=1;marginBottom=0;rounded=0;shadow=0;strokeWidth=1;" parent="WIyWlLk6GJQsqaUBKTNV-1" vertex="1">
          <mxGeometry x="1170" y="1120" width="620" height="294" as="geometry">
            <mxRectangle x="340" y="380" width="170" height="26" as="alternateBounds" />
          </mxGeometry>
        </mxCell>
        <mxCell id="ph0_lQSMsqOua-OGN9ng-9" value=" - basketItemID : int" style="text;align=left;verticalAlign=top;spacingLeft=4;spacingRight=4;overflow=hidden;rotatable=0;points=[[0,0.5],[1,0.5]];portConstraint=eastwest;" parent="ph0_lQSMsqOua-OGN9ng-7" vertex="1">
          <mxGeometry y="26" width="620" height="26" as="geometry" />
        </mxCell>
        <mxCell id="ph0_lQSMsqOua-OGN9ng-38" value=" - basketID : int&#xa;" style="text;align=left;verticalAlign=top;spacingLeft=4;spacingRight=4;overflow=hidden;rotatable=0;points=[[0,0.5],[1,0.5]];portConstraint=eastwest;" parent="ph0_lQSMsqOua-OGN9ng-7" vertex="1">
          <mxGeometry y="52" width="620" height="26" as="geometry" />
        </mxCell>
        <mxCell id="ph0_lQSMsqOua-OGN9ng-39" value=" - productID : int" style="text;align=left;verticalAlign=top;spacingLeft=4;spacingRight=4;overflow=hidden;rotatable=0;points=[[0,0.5],[1,0.5]];portConstraint=eastwest;" parent="ph0_lQSMsqOua-OGN9ng-7" vertex="1">
          <mxGeometry y="78" width="620" height="26" as="geometry" />
        </mxCell>
        <mxCell id="ph0_lQSMsqOua-OGN9ng-40" value=" - quantity: int" style="text;align=left;verticalAlign=top;spacingLeft=4;spacingRight=4;overflow=hidden;rotatable=0;points=[[0,0.5],[1,0.5]];portConstraint=eastwest;" parent="ph0_lQSMsqOua-OGN9ng-7" vertex="1">
          <mxGeometry y="104" width="620" height="26" as="geometry" />
        </mxCell>
        <mxCell id="ph0_lQSMsqOua-OGN9ng-10" value="" style="line;html=1;strokeWidth=1;align=left;verticalAlign=middle;spacingTop=-1;spacingLeft=3;spacingRight=3;rotatable=0;labelPosition=right;points=[];portConstraint=eastwest;" parent="ph0_lQSMsqOua-OGN9ng-7" vertex="1">
          <mxGeometry y="130" width="620" height="8" as="geometry" />
        </mxCell>
        <mxCell id="ph0_lQSMsqOua-OGN9ng-56" value=" + &lt;&lt;constructor&gt;&gt; BasketItem (in basketItemID : int, in basketID : int, in productID : int, in quantity : int)" style="text;align=left;verticalAlign=top;spacingLeft=4;spacingRight=4;overflow=hidden;rotatable=0;points=[[0,0.5],[1,0.5]];portConstraint=eastwest;" parent="ph0_lQSMsqOua-OGN9ng-7" vertex="1">
          <mxGeometry y="138" width="620" height="26" as="geometry" />
        </mxCell>
        <mxCell id="ph0_lQSMsqOua-OGN9ng-57" value=" + CalculateTotalCost() : decimal" style="text;align=left;verticalAlign=top;spacingLeft=4;spacingRight=4;overflow=hidden;rotatable=0;points=[[0,0.5],[1,0.5]];portConstraint=eastwest;" parent="ph0_lQSMsqOua-OGN9ng-7" vertex="1">
          <mxGeometry y="164" width="620" height="26" as="geometry" />
        </mxCell>
        <mxCell id="ph0_lQSMsqOua-OGN9ng-72" value=" + GetBasketItemID() : int" style="text;align=left;verticalAlign=top;spacingLeft=4;spacingRight=4;overflow=hidden;rotatable=0;points=[[0,0.5],[1,0.5]];portConstraint=eastwest;" parent="ph0_lQSMsqOua-OGN9ng-7" vertex="1">
          <mxGeometry y="190" width="620" height="26" as="geometry" />
        </mxCell>
        <mxCell id="ph0_lQSMsqOua-OGN9ng-66" value=" + GetBasketID() : int" style="text;align=left;verticalAlign=top;spacingLeft=4;spacingRight=4;overflow=hidden;rotatable=0;points=[[0,0.5],[1,0.5]];portConstraint=eastwest;" parent="ph0_lQSMsqOua-OGN9ng-7" vertex="1">
          <mxGeometry y="216" width="620" height="26" as="geometry" />
        </mxCell>
        <mxCell id="ph0_lQSMsqOua-OGN9ng-67" value=" + GetProductID() : int" style="text;align=left;verticalAlign=top;spacingLeft=4;spacingRight=4;overflow=hidden;rotatable=0;points=[[0,0.5],[1,0.5]];portConstraint=eastwest;" parent="ph0_lQSMsqOua-OGN9ng-7" vertex="1">
          <mxGeometry y="242" width="620" height="26" as="geometry" />
        </mxCell>
        <mxCell id="ph0_lQSMsqOua-OGN9ng-68" value=" + GetQuantity() : int" style="text;align=left;verticalAlign=top;spacingLeft=4;spacingRight=4;overflow=hidden;rotatable=0;points=[[0,0.5],[1,0.5]];portConstraint=eastwest;" parent="ph0_lQSMsqOua-OGN9ng-7" vertex="1">
          <mxGeometry y="268" width="620" height="26" as="geometry" />
        </mxCell>
        <mxCell id="ph0_lQSMsqOua-OGN9ng-92" value="Product Catalog Webpage" style="swimlane;fontStyle=0;align=center;verticalAlign=top;childLayout=stackLayout;horizontal=1;startSize=26;horizontalStack=0;resizeParent=1;resizeLast=0;collapsible=1;marginBottom=0;rounded=0;shadow=0;strokeWidth=1;" parent="WIyWlLk6GJQsqaUBKTNV-1" vertex="1">
          <mxGeometry x="1130" y="190" width="380" height="272" as="geometry">
            <mxRectangle x="340" y="380" width="170" height="26" as="alternateBounds" />
          </mxGeometry>
        </mxCell>
        <mxCell id="ph0_lQSMsqOua-OGN9ng-93" value=" - currentSessionID : int" style="text;align=left;verticalAlign=top;spacingLeft=4;spacingRight=4;overflow=hidden;rotatable=0;points=[[0,0.5],[1,0.5]];portConstraint=eastwest;" parent="ph0_lQSMsqOua-OGN9ng-92" vertex="1">
          <mxGeometry y="26" width="380" height="26" as="geometry" />
        </mxCell>
        <mxCell id="ph0_lQSMsqOua-OGN9ng-94" value=" - productList : Product []" style="text;align=left;verticalAlign=top;spacingLeft=4;spacingRight=4;overflow=hidden;rotatable=0;points=[[0,0.5],[1,0.5]];portConstraint=eastwest;" parent="ph0_lQSMsqOua-OGN9ng-92" vertex="1">
          <mxGeometry y="52" width="380" height="26" as="geometry" />
        </mxCell>
        <mxCell id="ph0_lQSMsqOua-OGN9ng-97" value="" style="line;html=1;strokeWidth=1;align=left;verticalAlign=middle;spacingTop=-1;spacingLeft=3;spacingRight=3;rotatable=0;labelPosition=right;points=[];portConstraint=eastwest;" parent="ph0_lQSMsqOua-OGN9ng-92" vertex="1">
          <mxGeometry y="78" width="380" height="8" as="geometry" />
        </mxCell>
        <mxCell id="ph0_lQSMsqOua-OGN9ng-98" value=" +  &lt;&lt;constructor&gt;&gt; Product Catalog Webpage ()" style="text;align=left;verticalAlign=top;spacingLeft=4;spacingRight=4;overflow=hidden;rotatable=0;points=[[0,0.5],[1,0.5]];portConstraint=eastwest;" parent="ph0_lQSMsqOua-OGN9ng-92" vertex="1">
          <mxGeometry y="86" width="380" height="26" as="geometry" />
        </mxCell>
        <mxCell id="ph0_lQSMsqOua-OGN9ng-99" value=" - CreateSession(in sessionID : int) : Session" style="text;align=left;verticalAlign=top;spacingLeft=4;spacingRight=4;overflow=hidden;rotatable=0;points=[[0,0.5],[1,0.5]];portConstraint=eastwest;" parent="ph0_lQSMsqOua-OGN9ng-92" vertex="1">
          <mxGeometry y="112" width="380" height="32" as="geometry" />
        </mxCell>
        <mxCell id="ph0_lQSMsqOua-OGN9ng-100" value=" - LaunchProductDetailsPageModal(product : Product)" style="text;align=left;verticalAlign=top;spacingLeft=4;spacingRight=4;overflow=hidden;rotatable=0;points=[[0,0.5],[1,0.5]];portConstraint=eastwest;" parent="ph0_lQSMsqOua-OGN9ng-92" vertex="1">
          <mxGeometry y="144" width="380" height="32" as="geometry" />
        </mxCell>
        <mxCell id="ph0_lQSMsqOua-OGN9ng-101" value=" - LaunchShoppingBasketModal(basket : Basket)" style="text;align=left;verticalAlign=top;spacingLeft=4;spacingRight=4;overflow=hidden;rotatable=0;points=[[0,0.5],[1,0.5]];portConstraint=eastwest;" parent="ph0_lQSMsqOua-OGN9ng-92" vertex="1">
          <mxGeometry y="176" width="380" height="32" as="geometry" />
        </mxCell>
        <mxCell id="tTByz9xbStQo4x7AQ5BX-0" value=" - GetShoppingBasket(basketID : int)" style="text;align=left;verticalAlign=top;spacingLeft=4;spacingRight=4;overflow=hidden;rotatable=0;points=[[0,0.5],[1,0.5]];portConstraint=eastwest;" vertex="1" parent="ph0_lQSMsqOua-OGN9ng-92">
          <mxGeometry y="208" width="380" height="32" as="geometry" />
        </mxCell>
        <mxCell id="tTByz9xbStQo4x7AQ5BX-24" value=" - LaunchAdminLoginPage()" style="text;align=left;verticalAlign=top;spacingLeft=4;spacingRight=4;overflow=hidden;rotatable=0;points=[[0,0.5],[1,0.5]];portConstraint=eastwest;" vertex="1" parent="ph0_lQSMsqOua-OGN9ng-92">
          <mxGeometry y="240" width="380" height="32" as="geometry" />
        </mxCell>
        <mxCell id="ph0_lQSMsqOua-OGN9ng-102" value="Session" style="swimlane;fontStyle=0;align=center;verticalAlign=top;childLayout=stackLayout;horizontal=1;startSize=26;horizontalStack=0;resizeParent=1;resizeLast=0;collapsible=1;marginBottom=0;rounded=0;shadow=0;strokeWidth=1;" parent="WIyWlLk6GJQsqaUBKTNV-1" vertex="1">
          <mxGeometry x="1610" y="600" width="380" height="164" as="geometry">
            <mxRectangle x="340" y="380" width="170" height="26" as="alternateBounds" />
          </mxGeometry>
        </mxCell>
        <mxCell id="ph0_lQSMsqOua-OGN9ng-103" value=" - sessionID : int" style="text;align=left;verticalAlign=top;spacingLeft=4;spacingRight=4;overflow=hidden;rotatable=0;points=[[0,0.5],[1,0.5]];portConstraint=eastwest;" parent="ph0_lQSMsqOua-OGN9ng-102" vertex="1">
          <mxGeometry y="26" width="380" height="26" as="geometry" />
        </mxCell>
        <mxCell id="ph0_lQSMsqOua-OGN9ng-104" value=" - basketID : int" style="text;align=left;verticalAlign=top;spacingLeft=4;spacingRight=4;overflow=hidden;rotatable=0;points=[[0,0.5],[1,0.5]];portConstraint=eastwest;" parent="ph0_lQSMsqOua-OGN9ng-102" vertex="1">
          <mxGeometry y="52" width="380" height="26" as="geometry" />
        </mxCell>
        <mxCell id="ph0_lQSMsqOua-OGN9ng-107" value="" style="line;html=1;strokeWidth=1;align=left;verticalAlign=middle;spacingTop=-1;spacingLeft=3;spacingRight=3;rotatable=0;labelPosition=right;points=[];portConstraint=eastwest;" parent="ph0_lQSMsqOua-OGN9ng-102" vertex="1">
          <mxGeometry y="78" width="380" height="8" as="geometry" />
        </mxCell>
        <mxCell id="ph0_lQSMsqOua-OGN9ng-108" value=" +  &lt;&lt;constructor&gt;&gt; Session (in basketID : int, in sessionID : int)" style="text;align=left;verticalAlign=top;spacingLeft=4;spacingRight=4;overflow=hidden;rotatable=0;points=[[0,0.5],[1,0.5]];portConstraint=eastwest;" parent="ph0_lQSMsqOua-OGN9ng-102" vertex="1">
          <mxGeometry y="86" width="380" height="26" as="geometry" />
        </mxCell>
        <mxCell id="ph0_lQSMsqOua-OGN9ng-112" value=" + GetID() : int" style="text;align=left;verticalAlign=top;spacingLeft=4;spacingRight=4;overflow=hidden;rotatable=0;points=[[0,0.5],[1,0.5]];portConstraint=eastwest;" parent="ph0_lQSMsqOua-OGN9ng-102" vertex="1">
          <mxGeometry y="112" width="380" height="26" as="geometry" />
        </mxCell>
        <mxCell id="ph0_lQSMsqOua-OGN9ng-113" value=" + GetBasketID() : int" style="text;align=left;verticalAlign=top;spacingLeft=4;spacingRight=4;overflow=hidden;rotatable=0;points=[[0,0.5],[1,0.5]];portConstraint=eastwest;" parent="ph0_lQSMsqOua-OGN9ng-102" vertex="1">
          <mxGeometry y="138" width="380" height="26" as="geometry" />
        </mxCell>
        <mxCell id="tTByz9xbStQo4x7AQ5BX-4" value="Product Detail Modal" style="swimlane;fontStyle=0;align=center;verticalAlign=top;childLayout=stackLayout;horizontal=1;startSize=26;horizontalStack=0;resizeParent=1;resizeLast=0;collapsible=1;marginBottom=0;rounded=0;shadow=0;strokeWidth=1;" vertex="1" parent="WIyWlLk6GJQsqaUBKTNV-1">
          <mxGeometry x="1540" y="140" width="380" height="112" as="geometry">
            <mxRectangle x="340" y="380" width="170" height="26" as="alternateBounds" />
          </mxGeometry>
        </mxCell>
        <mxCell id="tTByz9xbStQo4x7AQ5BX-5" value=" - product : Product" style="text;align=left;verticalAlign=top;spacingLeft=4;spacingRight=4;overflow=hidden;rotatable=0;points=[[0,0.5],[1,0.5]];portConstraint=eastwest;" vertex="1" parent="tTByz9xbStQo4x7AQ5BX-4">
          <mxGeometry y="26" width="380" height="26" as="geometry" />
        </mxCell>
        <mxCell id="tTByz9xbStQo4x7AQ5BX-7" value="" style="line;html=1;strokeWidth=1;align=left;verticalAlign=middle;spacingTop=-1;spacingLeft=3;spacingRight=3;rotatable=0;labelPosition=right;points=[];portConstraint=eastwest;" vertex="1" parent="tTByz9xbStQo4x7AQ5BX-4">
          <mxGeometry y="52" width="380" height="8" as="geometry" />
        </mxCell>
        <mxCell id="tTByz9xbStQo4x7AQ5BX-8" value=" +  &lt;&lt;constructor&gt;&gt; Product Detail Modal (in product : Product)" style="text;align=left;verticalAlign=top;spacingLeft=4;spacingRight=4;overflow=hidden;rotatable=0;points=[[0,0.5],[1,0.5]];portConstraint=eastwest;" vertex="1" parent="tTByz9xbStQo4x7AQ5BX-4">
          <mxGeometry y="60" width="380" height="26" as="geometry" />
        </mxCell>
        <mxCell id="tTByz9xbStQo4x7AQ5BX-29" value="- PopulateProductDetails()" style="text;align=left;verticalAlign=top;spacingLeft=4;spacingRight=4;overflow=hidden;rotatable=0;points=[[0,0.5],[1,0.5]];portConstraint=eastwest;" vertex="1" parent="tTByz9xbStQo4x7AQ5BX-4">
          <mxGeometry y="86" width="380" height="26" as="geometry" />
        </mxCell>
        <mxCell id="tTByz9xbStQo4x7AQ5BX-13" value="Shopping Basket Modal" style="swimlane;fontStyle=0;align=center;verticalAlign=top;childLayout=stackLayout;horizontal=1;startSize=26;horizontalStack=0;resizeParent=1;resizeLast=0;collapsible=1;marginBottom=0;rounded=0;shadow=0;strokeWidth=1;" vertex="1" parent="WIyWlLk6GJQsqaUBKTNV-1">
          <mxGeometry x="1550" y="310" width="380" height="190" as="geometry">
            <mxRectangle x="340" y="380" width="170" height="26" as="alternateBounds" />
          </mxGeometry>
        </mxCell>
        <mxCell id="tTByz9xbStQo4x7AQ5BX-14" value=" - basket : Basket" style="text;align=left;verticalAlign=top;spacingLeft=4;spacingRight=4;overflow=hidden;rotatable=0;points=[[0,0.5],[1,0.5]];portConstraint=eastwest;" vertex="1" parent="tTByz9xbStQo4x7AQ5BX-13">
          <mxGeometry y="26" width="380" height="26" as="geometry" />
        </mxCell>
        <mxCell id="tTByz9xbStQo4x7AQ5BX-15" value="" style="line;html=1;strokeWidth=1;align=left;verticalAlign=middle;spacingTop=-1;spacingLeft=3;spacingRight=3;rotatable=0;labelPosition=right;points=[];portConstraint=eastwest;" vertex="1" parent="tTByz9xbStQo4x7AQ5BX-13">
          <mxGeometry y="52" width="380" height="8" as="geometry" />
        </mxCell>
        <mxCell id="tTByz9xbStQo4x7AQ5BX-16" value=" +  &lt;&lt;constructor&gt;&gt; Shopping Basket Modal (in basket : Basket)" style="text;align=left;verticalAlign=top;spacingLeft=4;spacingRight=4;overflow=hidden;rotatable=0;points=[[0,0.5],[1,0.5]];portConstraint=eastwest;" vertex="1" parent="tTByz9xbStQo4x7AQ5BX-13">
          <mxGeometry y="60" width="380" height="26" as="geometry" />
        </mxCell>
        <mxCell id="tTByz9xbStQo4x7AQ5BX-17" value="- LaunchOrderProcess (in basket : Basket)" style="text;align=left;verticalAlign=top;spacingLeft=4;spacingRight=4;overflow=hidden;rotatable=0;points=[[0,0.5],[1,0.5]];portConstraint=eastwest;" vertex="1" parent="tTByz9xbStQo4x7AQ5BX-13">
          <mxGeometry y="86" width="380" height="26" as="geometry" />
        </mxCell>
        <mxCell id="tTByz9xbStQo4x7AQ5BX-28" value="- PopulateShoppingBasket()" style="text;align=left;verticalAlign=top;spacingLeft=4;spacingRight=4;overflow=hidden;rotatable=0;points=[[0,0.5],[1,0.5]];portConstraint=eastwest;" vertex="1" parent="tTByz9xbStQo4x7AQ5BX-13">
          <mxGeometry y="112" width="380" height="26" as="geometry" />
        </mxCell>
        <mxCell id="tTByz9xbStQo4x7AQ5BX-31" value="- EditBasket()" style="text;align=left;verticalAlign=top;spacingLeft=4;spacingRight=4;overflow=hidden;rotatable=0;points=[[0,0.5],[1,0.5]];portConstraint=eastwest;" vertex="1" parent="tTByz9xbStQo4x7AQ5BX-13">
          <mxGeometry y="138" width="380" height="26" as="geometry" />
        </mxCell>
        <mxCell id="tTByz9xbStQo4x7AQ5BX-32" value="- DiscardBasket()" style="text;align=left;verticalAlign=top;spacingLeft=4;spacingRight=4;overflow=hidden;rotatable=0;points=[[0,0.5],[1,0.5]];portConstraint=eastwest;" vertex="1" parent="tTByz9xbStQo4x7AQ5BX-13">
          <mxGeometry y="164" width="380" height="26" as="geometry" />
        </mxCell>
        <mxCell id="tTByz9xbStQo4x7AQ5BX-18" value="Order Form Webpage" style="swimlane;fontStyle=0;align=center;verticalAlign=top;childLayout=stackLayout;horizontal=1;startSize=26;horizontalStack=0;resizeParent=1;resizeLast=0;collapsible=1;marginBottom=0;rounded=0;shadow=0;strokeWidth=1;" vertex="1" parent="WIyWlLk6GJQsqaUBKTNV-1">
          <mxGeometry x="2041" y="590" width="440" height="268" as="geometry">
            <mxRectangle x="340" y="380" width="170" height="26" as="alternateBounds" />
          </mxGeometry>
        </mxCell>
        <mxCell id="tTByz9xbStQo4x7AQ5BX-23" value="- order : Order" style="text;align=left;verticalAlign=top;spacingLeft=4;spacingRight=4;overflow=hidden;rotatable=0;points=[[0,0.5],[1,0.5]];portConstraint=eastwest;" vertex="1" parent="tTByz9xbStQo4x7AQ5BX-18">
          <mxGeometry y="26" width="440" height="26" as="geometry" />
        </mxCell>
        <mxCell id="tTByz9xbStQo4x7AQ5BX-25" value="- customer : Customer" style="text;align=left;verticalAlign=top;spacingLeft=4;spacingRight=4;overflow=hidden;rotatable=0;points=[[0,0.5],[1,0.5]];portConstraint=eastwest;" vertex="1" parent="tTByz9xbStQo4x7AQ5BX-18">
          <mxGeometry y="52" width="440" height="26" as="geometry" />
        </mxCell>
        <mxCell id="tTByz9xbStQo4x7AQ5BX-20" value="" style="line;html=1;strokeWidth=1;align=left;verticalAlign=middle;spacingTop=-1;spacingLeft=3;spacingRight=3;rotatable=0;labelPosition=right;points=[];portConstraint=eastwest;" vertex="1" parent="tTByz9xbStQo4x7AQ5BX-18">
          <mxGeometry y="78" width="440" height="8" as="geometry" />
        </mxCell>
        <mxCell id="tTByz9xbStQo4x7AQ5BX-21" value=" +  &lt;&lt;constructor&gt;&gt; Order Form Webpage (in basket : Basket)" style="text;align=left;verticalAlign=top;spacingLeft=4;spacingRight=4;overflow=hidden;rotatable=0;points=[[0,0.5],[1,0.5]];portConstraint=eastwest;" vertex="1" parent="tTByz9xbStQo4x7AQ5BX-18">
          <mxGeometry y="86" width="440" height="26" as="geometry" />
        </mxCell>
        <mxCell id="tTByz9xbStQo4x7AQ5BX-22" value="- CreateCustomer()" style="text;align=left;verticalAlign=top;spacingLeft=4;spacingRight=4;overflow=hidden;rotatable=0;points=[[0,0.5],[1,0.5]];portConstraint=eastwest;" vertex="1" parent="tTByz9xbStQo4x7AQ5BX-18">
          <mxGeometry y="112" width="440" height="26" as="geometry" />
        </mxCell>
        <mxCell id="tTByz9xbStQo4x7AQ5BX-26" value="- CreateOrder()" style="text;align=left;verticalAlign=top;spacingLeft=4;spacingRight=4;overflow=hidden;rotatable=0;points=[[0,0.5],[1,0.5]];portConstraint=eastwest;" vertex="1" parent="tTByz9xbStQo4x7AQ5BX-18">
          <mxGeometry y="138" width="440" height="26" as="geometry" />
        </mxCell>
        <mxCell id="tTByz9xbStQo4x7AQ5BX-27" value="- PopulateOrderForm()" style="text;align=left;verticalAlign=top;spacingLeft=4;spacingRight=4;overflow=hidden;rotatable=0;points=[[0,0.5],[1,0.5]];portConstraint=eastwest;" vertex="1" parent="tTByz9xbStQo4x7AQ5BX-18">
          <mxGeometry y="164" width="440" height="26" as="geometry" />
        </mxCell>
        <mxCell id="tTByz9xbStQo4x7AQ5BX-30" value="- SubmitOrder(in customer : Customer, in order : Order) : Invoice Web Page" style="text;align=left;verticalAlign=top;spacingLeft=4;spacingRight=4;overflow=hidden;rotatable=0;points=[[0,0.5],[1,0.5]];portConstraint=eastwest;" vertex="1" parent="tTByz9xbStQo4x7AQ5BX-18">
          <mxGeometry y="190" width="440" height="26" as="geometry" />
        </mxCell>
        <mxCell id="tTByz9xbStQo4x7AQ5BX-33" value="- EditOrder()" style="text;align=left;verticalAlign=top;spacingLeft=4;spacingRight=4;overflow=hidden;rotatable=0;points=[[0,0.5],[1,0.5]];portConstraint=eastwest;" vertex="1" parent="tTByz9xbStQo4x7AQ5BX-18">
          <mxGeometry y="216" width="440" height="26" as="geometry" />
        </mxCell>
        <mxCell id="tTByz9xbStQo4x7AQ5BX-34" value="- DiscardOrder()" style="text;align=left;verticalAlign=top;spacingLeft=4;spacingRight=4;overflow=hidden;rotatable=0;points=[[0,0.5],[1,0.5]];portConstraint=eastwest;" vertex="1" parent="tTByz9xbStQo4x7AQ5BX-18">
          <mxGeometry y="242" width="440" height="26" as="geometry" />
        </mxCell>
        <mxCell id="tTByz9xbStQo4x7AQ5BX-35" value="Invoice Web Page" style="swimlane;fontStyle=0;align=center;verticalAlign=top;childLayout=stackLayout;horizontal=1;startSize=26;horizontalStack=0;resizeParent=1;resizeLast=0;collapsible=1;marginBottom=0;rounded=0;shadow=0;strokeWidth=1;" vertex="1" parent="WIyWlLk6GJQsqaUBKTNV-1">
          <mxGeometry x="1990" y="270" width="450" height="190" as="geometry">
            <mxRectangle x="340" y="380" width="170" height="26" as="alternateBounds" />
          </mxGeometry>
        </mxCell>
        <mxCell id="tTByz9xbStQo4x7AQ5BX-43" value="- order : Order" style="text;align=left;verticalAlign=top;spacingLeft=4;spacingRight=4;overflow=hidden;rotatable=0;points=[[0,0.5],[1,0.5]];portConstraint=eastwest;" vertex="1" parent="tTByz9xbStQo4x7AQ5BX-35">
          <mxGeometry y="26" width="450" height="26" as="geometry" />
        </mxCell>
        <mxCell id="tTByz9xbStQo4x7AQ5BX-44" value="- customer : Customer" style="text;align=left;verticalAlign=top;spacingLeft=4;spacingRight=4;overflow=hidden;rotatable=0;points=[[0,0.5],[1,0.5]];portConstraint=eastwest;" vertex="1" parent="tTByz9xbStQo4x7AQ5BX-35">
          <mxGeometry y="52" width="450" height="26" as="geometry" />
        </mxCell>
        <mxCell id="tTByz9xbStQo4x7AQ5BX-37" value="" style="line;html=1;strokeWidth=1;align=left;verticalAlign=middle;spacingTop=-1;spacingLeft=3;spacingRight=3;rotatable=0;labelPosition=right;points=[];portConstraint=eastwest;" vertex="1" parent="tTByz9xbStQo4x7AQ5BX-35">
          <mxGeometry y="78" width="450" height="8" as="geometry" />
        </mxCell>
        <mxCell id="tTByz9xbStQo4x7AQ5BX-38" value=" +  &lt;&lt;constructor&gt;&gt; Invoice Web Page (in customer : Customer, in order : Order)" style="text;align=left;verticalAlign=top;spacingLeft=4;spacingRight=4;overflow=hidden;rotatable=0;points=[[0,0.5],[1,0.5]];portConstraint=eastwest;" vertex="1" parent="tTByz9xbStQo4x7AQ5BX-35">
          <mxGeometry y="86" width="450" height="26" as="geometry" />
        </mxCell>
        <mxCell id="tTByz9xbStQo4x7AQ5BX-40" value="- PopulateInvoice()" style="text;align=left;verticalAlign=top;spacingLeft=4;spacingRight=4;overflow=hidden;rotatable=0;points=[[0,0.5],[1,0.5]];portConstraint=eastwest;" vertex="1" parent="tTByz9xbStQo4x7AQ5BX-35">
          <mxGeometry y="112" width="450" height="26" as="geometry" />
        </mxCell>
        <mxCell id="tTByz9xbStQo4x7AQ5BX-41" value="- PrintInvoice()" style="text;align=left;verticalAlign=top;spacingLeft=4;spacingRight=4;overflow=hidden;rotatable=0;points=[[0,0.5],[1,0.5]];portConstraint=eastwest;" vertex="1" parent="tTByz9xbStQo4x7AQ5BX-35">
          <mxGeometry y="138" width="450" height="26" as="geometry" />
        </mxCell>
        <mxCell id="tTByz9xbStQo4x7AQ5BX-45" value="- ReturnToProductPage()" style="text;align=left;verticalAlign=top;spacingLeft=4;spacingRight=4;overflow=hidden;rotatable=0;points=[[0,0.5],[1,0.5]];portConstraint=eastwest;" vertex="1" parent="tTByz9xbStQo4x7AQ5BX-35">
          <mxGeometry y="164" width="450" height="26" as="geometry" />
        </mxCell>
        <mxCell id="tTByz9xbStQo4x7AQ5BX-46" value="Admin Login Web Page" style="swimlane;fontStyle=0;align=center;verticalAlign=top;childLayout=stackLayout;horizontal=1;startSize=26;horizontalStack=0;resizeParent=1;resizeLast=0;collapsible=1;marginBottom=0;rounded=0;shadow=0;strokeWidth=1;" vertex="1" parent="WIyWlLk6GJQsqaUBKTNV-1">
          <mxGeometry x="1120" y="518" width="380" height="138" as="geometry">
            <mxRectangle x="340" y="380" width="170" height="26" as="alternateBounds" />
          </mxGeometry>
        </mxCell>
        <mxCell id="tTByz9xbStQo4x7AQ5BX-47" value="- user : User" style="text;align=left;verticalAlign=top;spacingLeft=4;spacingRight=4;overflow=hidden;rotatable=0;points=[[0,0.5],[1,0.5]];portConstraint=eastwest;" vertex="1" parent="tTByz9xbStQo4x7AQ5BX-46">
          <mxGeometry y="26" width="380" height="26" as="geometry" />
        </mxCell>
        <mxCell id="tTByz9xbStQo4x7AQ5BX-48" value="" style="line;html=1;strokeWidth=1;align=left;verticalAlign=middle;spacingTop=-1;spacingLeft=3;spacingRight=3;rotatable=0;labelPosition=right;points=[];portConstraint=eastwest;" vertex="1" parent="tTByz9xbStQo4x7AQ5BX-46">
          <mxGeometry y="52" width="380" height="8" as="geometry" />
        </mxCell>
        <mxCell id="tTByz9xbStQo4x7AQ5BX-49" value=" +  &lt;&lt;constructor&gt;&gt; Admin Login Web Page()" style="text;align=left;verticalAlign=top;spacingLeft=4;spacingRight=4;overflow=hidden;rotatable=0;points=[[0,0.5],[1,0.5]];portConstraint=eastwest;" vertex="1" parent="tTByz9xbStQo4x7AQ5BX-46">
          <mxGeometry y="60" width="380" height="26" as="geometry" />
        </mxCell>
        <mxCell id="tTByz9xbStQo4x7AQ5BX-50" value=" - VerifyUserLogin()" style="text;align=left;verticalAlign=top;spacingLeft=4;spacingRight=4;overflow=hidden;rotatable=0;points=[[0,0.5],[1,0.5]];portConstraint=eastwest;" vertex="1" parent="tTByz9xbStQo4x7AQ5BX-46">
          <mxGeometry y="86" width="380" height="26" as="geometry" />
        </mxCell>
        <mxCell id="tTByz9xbStQo4x7AQ5BX-51" value=" - LaunchSiteAdministratorPage(in user : User)" style="text;align=left;verticalAlign=top;spacingLeft=4;spacingRight=4;overflow=hidden;rotatable=0;points=[[0,0.5],[1,0.5]];portConstraint=eastwest;" vertex="1" parent="tTByz9xbStQo4x7AQ5BX-46">
          <mxGeometry y="112" width="380" height="26" as="geometry" />
        </mxCell>
        <mxCell id="tTByz9xbStQo4x7AQ5BX-52" value="Site Administrator Orders Page" style="swimlane;fontStyle=0;align=center;verticalAlign=top;childLayout=stackLayout;horizontal=1;startSize=26;horizontalStack=0;resizeParent=1;resizeLast=0;collapsible=1;marginBottom=0;rounded=0;shadow=0;strokeWidth=1;" vertex="1" parent="WIyWlLk6GJQsqaUBKTNV-1">
          <mxGeometry x="1250" y="764" width="440" height="314" as="geometry">
            <mxRectangle x="340" y="380" width="170" height="26" as="alternateBounds" />
          </mxGeometry>
        </mxCell>
        <mxCell id="tTByz9xbStQo4x7AQ5BX-53" value="- user : User" style="text;align=left;verticalAlign=top;spacingLeft=4;spacingRight=4;overflow=hidden;rotatable=0;points=[[0,0.5],[1,0.5]];portConstraint=eastwest;" vertex="1" parent="tTByz9xbStQo4x7AQ5BX-52">
          <mxGeometry y="26" width="440" height="26" as="geometry" />
        </mxCell>
        <mxCell id="tTByz9xbStQo4x7AQ5BX-58" value="- orders : Order []" style="text;align=left;verticalAlign=top;spacingLeft=4;spacingRight=4;overflow=hidden;rotatable=0;points=[[0,0.5],[1,0.5]];portConstraint=eastwest;" vertex="1" parent="tTByz9xbStQo4x7AQ5BX-52">
          <mxGeometry y="52" width="440" height="26" as="geometry" />
        </mxCell>
        <mxCell id="tTByz9xbStQo4x7AQ5BX-60" value="- products : Product []" style="text;align=left;verticalAlign=top;spacingLeft=4;spacingRight=4;overflow=hidden;rotatable=0;points=[[0,0.5],[1,0.5]];portConstraint=eastwest;" vertex="1" parent="tTByz9xbStQo4x7AQ5BX-52">
          <mxGeometry y="78" width="440" height="26" as="geometry" />
        </mxCell>
        <mxCell id="tTByz9xbStQo4x7AQ5BX-54" value="" style="line;html=1;strokeWidth=1;align=left;verticalAlign=middle;spacingTop=-1;spacingLeft=3;spacingRight=3;rotatable=0;labelPosition=right;points=[];portConstraint=eastwest;" vertex="1" parent="tTByz9xbStQo4x7AQ5BX-52">
          <mxGeometry y="104" width="440" height="8" as="geometry" />
        </mxCell>
        <mxCell id="tTByz9xbStQo4x7AQ5BX-55" value=" +  &lt;&lt;constructor&gt;&gt; Site Administrator Orders Page(in user : User)" style="text;align=left;verticalAlign=top;spacingLeft=4;spacingRight=4;overflow=hidden;rotatable=0;points=[[0,0.5],[1,0.5]];portConstraint=eastwest;" vertex="1" parent="tTByz9xbStQo4x7AQ5BX-52">
          <mxGeometry y="112" width="440" height="26" as="geometry" />
        </mxCell>
        <mxCell id="tTByz9xbStQo4x7AQ5BX-56" value="- GetAllOrders()" style="text;align=left;verticalAlign=top;spacingLeft=4;spacingRight=4;overflow=hidden;rotatable=0;points=[[0,0.5],[1,0.5]];portConstraint=eastwest;" vertex="1" parent="tTByz9xbStQo4x7AQ5BX-52">
          <mxGeometry y="138" width="440" height="26" as="geometry" />
        </mxCell>
        <mxCell id="tTByz9xbStQo4x7AQ5BX-61" value="- GetAllProducts()" style="text;align=left;verticalAlign=top;spacingLeft=4;spacingRight=4;overflow=hidden;rotatable=0;points=[[0,0.5],[1,0.5]];portConstraint=eastwest;" vertex="1" parent="tTByz9xbStQo4x7AQ5BX-52">
          <mxGeometry y="164" width="440" height="26" as="geometry" />
        </mxCell>
        <mxCell id="tTByz9xbStQo4x7AQ5BX-63" value="- GetCustomerDetails(in customerID : int) : Customer" style="text;align=left;verticalAlign=top;spacingLeft=4;spacingRight=4;overflow=hidden;rotatable=0;points=[[0,0.5],[1,0.5]];portConstraint=eastwest;" vertex="1" parent="tTByz9xbStQo4x7AQ5BX-52">
          <mxGeometry y="190" width="440" height="26" as="geometry" />
        </mxCell>
        <mxCell id="tTByz9xbStQo4x7AQ5BX-57" value="- FilterOrdersByDateRange(in startDate : DateTime, in endDate : DateTime)" style="text;align=left;verticalAlign=top;spacingLeft=4;spacingRight=4;overflow=hidden;rotatable=0;points=[[0,0.5],[1,0.5]];portConstraint=eastwest;" vertex="1" parent="tTByz9xbStQo4x7AQ5BX-52">
          <mxGeometry y="216" width="440" height="26" as="geometry" />
        </mxCell>
        <mxCell id="tTByz9xbStQo4x7AQ5BX-62" value="- GetTotalOrdersForProduct (in productID : int) : int" style="text;align=left;verticalAlign=top;spacingLeft=4;spacingRight=4;overflow=hidden;rotatable=0;points=[[0,0.5],[1,0.5]];portConstraint=eastwest;" vertex="1" parent="tTByz9xbStQo4x7AQ5BX-52">
          <mxGeometry y="242" width="440" height="24" as="geometry" />
        </mxCell>
        <mxCell id="tTByz9xbStQo4x7AQ5BX-75" value="- LaunchStockPage(in user : User)" style="text;align=left;verticalAlign=top;spacingLeft=4;spacingRight=4;overflow=hidden;rotatable=0;points=[[0,0.5],[1,0.5]];portConstraint=eastwest;" vertex="1" parent="tTByz9xbStQo4x7AQ5BX-52">
          <mxGeometry y="266" width="440" height="24" as="geometry" />
        </mxCell>
        <mxCell id="tTByz9xbStQo4x7AQ5BX-77" value="- Logout()" style="text;align=left;verticalAlign=top;spacingLeft=4;spacingRight=4;overflow=hidden;rotatable=0;points=[[0,0.5],[1,0.5]];portConstraint=eastwest;" vertex="1" parent="tTByz9xbStQo4x7AQ5BX-52">
          <mxGeometry y="290" width="440" height="24" as="geometry" />
        </mxCell>
        <mxCell id="tTByz9xbStQo4x7AQ5BX-64" value="Site Administrator Stock Page" style="swimlane;fontStyle=0;align=center;verticalAlign=top;childLayout=stackLayout;horizontal=1;startSize=26;horizontalStack=0;resizeParent=1;resizeLast=0;collapsible=1;marginBottom=0;rounded=0;shadow=0;strokeWidth=1;" vertex="1" parent="WIyWlLk6GJQsqaUBKTNV-1">
          <mxGeometry x="1848" y="940" width="440" height="262" as="geometry">
            <mxRectangle x="340" y="380" width="170" height="26" as="alternateBounds" />
          </mxGeometry>
        </mxCell>
        <mxCell id="tTByz9xbStQo4x7AQ5BX-65" value="- user : User" style="text;align=left;verticalAlign=top;spacingLeft=4;spacingRight=4;overflow=hidden;rotatable=0;points=[[0,0.5],[1,0.5]];portConstraint=eastwest;" vertex="1" parent="tTByz9xbStQo4x7AQ5BX-64">
          <mxGeometry y="26" width="440" height="26" as="geometry" />
        </mxCell>
        <mxCell id="tTByz9xbStQo4x7AQ5BX-66" value="- orders : Order []" style="text;align=left;verticalAlign=top;spacingLeft=4;spacingRight=4;overflow=hidden;rotatable=0;points=[[0,0.5],[1,0.5]];portConstraint=eastwest;" vertex="1" parent="tTByz9xbStQo4x7AQ5BX-64">
          <mxGeometry y="52" width="440" height="26" as="geometry" />
        </mxCell>
        <mxCell id="tTByz9xbStQo4x7AQ5BX-67" value="- products : Product []" style="text;align=left;verticalAlign=top;spacingLeft=4;spacingRight=4;overflow=hidden;rotatable=0;points=[[0,0.5],[1,0.5]];portConstraint=eastwest;" vertex="1" parent="tTByz9xbStQo4x7AQ5BX-64">
          <mxGeometry y="78" width="440" height="26" as="geometry" />
        </mxCell>
        <mxCell id="tTByz9xbStQo4x7AQ5BX-68" value="" style="line;html=1;strokeWidth=1;align=left;verticalAlign=middle;spacingTop=-1;spacingLeft=3;spacingRight=3;rotatable=0;labelPosition=right;points=[];portConstraint=eastwest;" vertex="1" parent="tTByz9xbStQo4x7AQ5BX-64">
          <mxGeometry y="104" width="440" height="8" as="geometry" />
        </mxCell>
        <mxCell id="tTByz9xbStQo4x7AQ5BX-69" value=" +  &lt;&lt;constructor&gt;&gt; Site Administrator Stock Page(in user : User)" style="text;align=left;verticalAlign=top;spacingLeft=4;spacingRight=4;overflow=hidden;rotatable=0;points=[[0,0.5],[1,0.5]];portConstraint=eastwest;" vertex="1" parent="tTByz9xbStQo4x7AQ5BX-64">
          <mxGeometry y="112" width="440" height="26" as="geometry" />
        </mxCell>
        <mxCell id="tTByz9xbStQo4x7AQ5BX-70" value="- GetAllOrders()" style="text;align=left;verticalAlign=top;spacingLeft=4;spacingRight=4;overflow=hidden;rotatable=0;points=[[0,0.5],[1,0.5]];portConstraint=eastwest;" vertex="1" parent="tTByz9xbStQo4x7AQ5BX-64">
          <mxGeometry y="138" width="440" height="26" as="geometry" />
        </mxCell>
        <mxCell id="tTByz9xbStQo4x7AQ5BX-71" value="- GetAllProducts()" style="text;align=left;verticalAlign=top;spacingLeft=4;spacingRight=4;overflow=hidden;rotatable=0;points=[[0,0.5],[1,0.5]];portConstraint=eastwest;" vertex="1" parent="tTByz9xbStQo4x7AQ5BX-64">
          <mxGeometry y="164" width="440" height="26" as="geometry" />
        </mxCell>
        <mxCell id="tTByz9xbStQo4x7AQ5BX-74" value="- GetTotalOrdersForProduct (in productID : int) : int" style="text;align=left;verticalAlign=top;spacingLeft=4;spacingRight=4;overflow=hidden;rotatable=0;points=[[0,0.5],[1,0.5]];portConstraint=eastwest;" vertex="1" parent="tTByz9xbStQo4x7AQ5BX-64">
          <mxGeometry y="190" width="440" height="24" as="geometry" />
        </mxCell>
        <mxCell id="tTByz9xbStQo4x7AQ5BX-76" value="- LaunchOrdersPage(in user : User)" style="text;align=left;verticalAlign=top;spacingLeft=4;spacingRight=4;overflow=hidden;rotatable=0;points=[[0,0.5],[1,0.5]];portConstraint=eastwest;" vertex="1" parent="tTByz9xbStQo4x7AQ5BX-64">
          <mxGeometry y="214" width="440" height="24" as="geometry" />
        </mxCell>
        <mxCell id="tTByz9xbStQo4x7AQ5BX-78" value="- Logout()" style="text;align=left;verticalAlign=top;spacingLeft=4;spacingRight=4;overflow=hidden;rotatable=0;points=[[0,0.5],[1,0.5]];portConstraint=eastwest;" vertex="1" parent="tTByz9xbStQo4x7AQ5BX-64">
          <mxGeometry y="238" width="440" height="24" as="geometry" />
        </mxCell>
      </root>
    </mxGraphModel>
  </diagram>
</mxfile>
